# xmcd
#
# Track frame offsets:
# 150
# 14280
# 28205
# 42595
# 66322
# 82380
# 94810
# 106825
# 116845
# 128022
# 140167
# 190107
#
# Disc length: 2696 seconds
#
#
# Revision: 3
# Processed by: cddbd v1.5.1PL2 Copyright (c) Steve Scherf et al.
# Submitted via: FreeRIP 2.943 
#
DISCID=b10a860c
DTITLE=Creedence Clearwater Revival - Grandes Sucessos De Creedence Clearwater Revival
DYEAR=1985
DGENRE=Rock
TTITLE0=Proud Mary
TTITLE1=Run Through The Jungle
TTITLE2=Lodi
TTITLE3=Born On The Bayou
TTITLE4=Long As I Can See The Light
TTITLE5=Hey Tonight
TTITLE6=Have You Ever See The Rain?
TTITLE7=Hello Mary Lou
TTITLE8=Who'll Stop The Rain
TTITLE9=Good Golly, Miss Molly
TTITLE10=I Heard It Through The Grapevine
TTITLE11=Molina
EXTD=
EXTT0=
EXTT1=
EXTT2=
EXTT3=
EXTT4=
EXTT5=
EXTT6=
EXTT7=
EXTT8=
EXTT9=
EXTT10=
EXTT11=
PLAYORDER=
